<?xml version="1.0" standalone="no"?>
<!DOCTYPE svg PUBLIC "-//W3C//DTD SVG 20010904//EN"
 "http://www.w3.org/TR/2001/REC-SVG-20010904/DTD/svg10.dtd">
<svg version="1.0" xmlns="http://www.w3.org/2000/svg"
 width="1125.000000pt" height="1125.000000pt" viewBox="0 0 1125.000000 1125.000000"
 preserveAspectRatio="xMidYMid meet">
<metadata>
Created by potrace 1.14, written by Peter Selinger 2001-2017
</metadata>
<g transform="translate(0.000000,1125.000000) scale(0.100000,-0.100000)"
fill="#000000" stroke="none">
<path d="M5666 10703 c-1 -2 -67 -5 -147 -7 -79 -3 -144 -6 -144 -7 0 -1 -18
-3 -40 -4 -22 -2 -69 -6 -105 -10 -36 -3 -83 -8 -105 -10 -22 -2 -40 -5 -40
-6 0 -1 -48 -8 -95 -12 -19 -1 -39 -5 -45 -8 -5 -4 -22 -6 -37 -5 -16 1 -28
-1 -28 -4 0 -3 -12 -6 -28 -7 -29 -3 -67 -10 -67 -13 0 -1 -13 -3 -30 -5 -16
-1 -30 -3 -30 -5 0 -1 -11 -4 -25 -5 -53 -8 -96 -17 -111 -26 -9 -4 -19 -6
-22 -3 -3 3 -12 2 -19 -2 -7 -5 -22 -10 -33 -11 -22 -3 -241 -66 -315 -90 -91
-30 -276 -95 -307 -109 -17 -8 -33 -14 -36 -14 -3 0 -36 -14 -73 -31 -37 -17
-72 -32 -78 -33 -6 -2 -51 -21 -100 -44 -49 -23 -93 -42 -97 -42 -5 0 -9 -5
-9 -10 0 -6 -3 -9 -7 -8 -18 5 -421 -216 -482 -263 -13 -11 -29 -19 -37 -19
-7 0 -14 -3 -16 -7 -4 -11 -127 -93 -138 -93 -5 0 -10 -4 -12 -8 -1 -4 -19
-19 -38 -32 -43 -29 -223 -162 -230 -170 -3 -3 -41 -34 -85 -70 -44 -35 -85
-69 -91 -75 -6 -5 -44 -39 -85 -75 -90 -80 -270 -259 -365 -363 -39 -42 -75
-77 -79 -77 -5 0 27 37 71 83 79 81 124 137 124 154 0 4 -29 -23 -65 -61 -36
-38 -65 -70 -65 -72 0 -3 -50 -61 -102 -118 -23 -25 -33 -43 -26 -47 12 -8
-18 -55 -49 -80 -17 -13 -17 -13 -2 6 20 24 42 65 35 65 -5 0 -122 -151 -176
-229 -19 -28 -38 -50 -42 -51 -5 0 -8 -6 -8 -13 0 -7 -8 -22 -18 -33 -22 -24
-181 -269 -189 -292 -4 -9 -9 -19 -12 -22 -7 -6 -24 -36 -59 -99 -43 -81 -52
-101 -51 -107 0 -4 -3 -10 -8 -13 -16 -11 -193 -390 -193 -414 0 -7 -4 -17 -9
-23 -11 -11 -23 -43 -96 -256 -29 -87 -51 -158 -49 -158 3 0 0 -9 -6 -21 -6
-11 -13 -28 -15 -37 -1 -9 -10 -43 -18 -74 -8 -31 -12 -59 -9 -62 3 -3 0 -6
-6 -6 -7 0 -12 -9 -12 -21 0 -12 -7 -47 -14 -78 -21 -81 -27 -110 -30 -166 -2
-27 -9 -79 -16 -115 -7 -36 -14 -74 -16 -85 -2 -11 -13 -63 -24 -115 -23 -101
-25 -116 -34 -225 -3 -38 -8 -81 -11 -95 -6 -33 -14 -120 -8 -98 2 9 11 22 19
29 13 11 15 2 9 -72 -10 -132 -14 -172 -21 -199 -9 -36 -12 -263 -3 -324 15
-110 21 -139 31 -165 6 -14 10 -30 9 -35 -8 -34 2 -243 14 -296 3 -14 7 -44 9
-66 2 -23 8 -50 14 -60 9 -15 10 -11 7 21 -4 35 -3 37 4 10 5 -16 9 -41 10
-55 1 -20 -1 -22 -10 -10 -8 11 -9 8 -4 -15 4 -16 9 -43 12 -60 5 -37 45 -196
72 -287 10 -36 17 -69 13 -72 -3 -3 0 -6 6 -6 7 0 12 -8 12 -18 0 -11 9 -44
19 -75 11 -32 17 -57 14 -57 -3 0 0 -7 7 -15 7 -8 9 -15 4 -15 -4 0 -3 -5 4
-12 7 -7 12 -21 12 -33 0 -12 5 -26 12 -33 7 -7 9 -12 5 -12 -4 0 -1 -13 8
-30 8 -16 15 -32 15 -35 1 -29 15 -65 25 -61 7 2 19 -17 30 -52 9 -31 35 -92
57 -137 22 -44 52 -111 67 -150 15 -38 42 -97 61 -130 19 -33 33 -62 32 -64
-2 -2 0 -7 5 -10 5 -3 16 -19 25 -36 84 -163 118 -225 136 -246 12 -13 60 -89
107 -167 47 -79 90 -149 96 -155 5 -7 37 -48 70 -92 32 -44 65 -87 72 -95 39
-48 154 -188 169 -205 9 -11 26 -31 38 -45 164 -192 292 -324 486 -501 69 -63
268 -224 340 -275 38 -27 71 -52 72 -56 2 -5 10 -8 17 -8 7 0 15 -4 17 -8 1
-4 37 -30 78 -57 41 -27 77 -53 78 -57 2 -4 7 -8 12 -8 4 0 55 -29 114 -65 58
-36 111 -65 116 -65 6 0 10 -4 10 -10 0 -5 6 -10 14 -10 8 0 22 -8 32 -18 10
-9 20 -16 23 -16 6 2 57 -23 117 -57 19 -10 41 -19 49 -19 8 0 15 -4 15 -9 0
-5 10 -13 23 -17 12 -4 52 -21 89 -39 37 -18 69 -30 72 -27 3 3 6 0 6 -6 0 -7
8 -12 18 -12 10 0 22 -4 27 -9 24 -21 425 -168 540 -197 6 -2 51 -15 100 -29
50 -14 99 -27 110 -30 11 -2 31 -7 45 -10 14 -3 39 -9 55 -12 45 -8 60 -11 63
-13 1 -2 11 -4 22 -5 11 -1 21 -3 23 -5 3 -2 35 -9 67 -14 14 -2 43 -7 65 -11
22 -5 51 -9 65 -11 14 -1 25 -3 25 -4 0 -3 26 -7 85 -14 30 -4 78 -10 105 -13
28 -3 65 -6 83 -7 17 0 32 -3 32 -6 0 -3 21 -6 48 -6 26 -1 106 -5 177 -8 170
-9 381 -10 394 -1 6 3 11 1 11 -5 0 -6 5 -8 11 -4 7 4 48 8 93 10 45 2 110 6
146 9 36 3 83 7 105 9 22 1 58 6 81 10 22 4 62 9 90 11 27 2 49 4 49 5 0 4 87
18 150 24 17 2 31 4 33 6 1 1 11 4 22 5 11 1 21 3 23 5 3 2 23 6 70 14 47 8
126 26 147 33 8 4 18 6 21 5 4 -1 40 8 80 19 41 12 79 22 84 23 142 33 529
174 695 253 30 15 75 40 100 57 25 17 47 31 50 31 6 0 114 43 160 63 19 9 68
35 108 59 41 24 76 43 79 43 4 0 90 58 457 310 68 47 164 121 212 165 154 139
274 258 274 272 0 7 5 13 10 13 6 0 10 5 10 11 0 7 39 51 88 98 107 106 141
145 214 241 32 41 61 80 66 85 4 6 37 55 74 110 36 55 88 124 117 153 28 29
51 56 51 60 0 6 49 78 114 167 8 11 16 25 17 30 2 6 10 18 19 28 18 18 70 120
70 134 0 4 -4 3 -8 -4 -12 -19 -34 -19 -37 -1 -2 10 1 18 6 18 5 0 8 3 7 8 -1
4 16 45 38 92 95 197 153 339 220 540 14 41 28 82 31 90 3 8 7 20 8 25 2 6 10
36 20 67 9 32 16 61 17 65 0 5 4 14 10 21 6 7 8 15 5 18 -3 3 -1 18 5 33 10
26 14 42 24 90 3 14 7 28 9 31 2 4 7 20 9 36 3 16 8 39 11 51 3 13 7 33 10 45
3 13 8 37 11 53 8 43 12 60 14 60 1 0 7 41 14 100 2 17 5 30 6 30 2 0 3 9 14
96 4 31 9 66 11 78 18 96 26 635 10 751 -3 25 -6 51 -7 58 -4 39 -8 -16 -13
-198 -5 -215 -10 -288 -19 -297 -2 -3 -1 -15 4 -28 5 -13 6 -26 2 -29 -7 -7
-7 -8 -16 -91 -13 -121 -22 -185 -32 -240 -4 -16 -8 -41 -9 -55 -2 -14 -4 -25
-5 -25 -2 0 -4 -11 -5 -25 -3 -26 -10 -67 -19 -110 -16 -75 -28 -127 -33 -140
-4 -8 -6 -18 -5 -21 0 -3 -8 -39 -19 -80 -11 -41 -21 -78 -23 -84 -24 -94 -31
-115 -38 -115 -5 0 -7 -4 -4 -9 5 -8 -44 -163 -74 -236 -7 -16 -16 -39 -21
-50 -100 -245 -225 -488 -289 -562 -5 -7 -10 -19 -10 -27 0 -8 -4 -16 -8 -18
-4 -1 -18 -23 -30 -48 -56 -116 -252 -406 -324 -481 -8 -8 -24 -27 -37 -44
-51 -67 -153 -177 -281 -305 -182 -181 -403 -391 -426 -403 -11 -6 -21 -14
-24 -18 -8 -11 -162 -129 -169 -129 -3 0 -17 -10 -31 -23 -46 -42 -360 -234
-360 -220 0 10 66 53 80 53 5 0 10 5 10 11 0 5 5 7 10 4 6 -3 13 1 16 9 3 9
10 16 15 16 4 0 34 18 66 40 32 22 66 46 77 53 10 6 24 17 30 22 6 6 50 39 96
75 47 35 87 68 88 72 2 4 8 8 12 8 5 0 20 10 33 23 12 12 58 54 102 92 115
103 254 244 328 334 43 53 8 25 -95 -77 -62 -60 -137 -132 -167 -158 -30 -27
-62 -56 -71 -64 -16 -15 -118 -102 -153 -130 -10 -8 -27 -22 -37 -31 -59 -49
-229 -167 -314 -216 -45 -26 -82 -51 -84 -55 -2 -4 -12 -8 -23 -8 -10 0 -19
-4 -19 -9 0 -5 -10 -13 -22 -17 -13 -3 -31 -13 -40 -22 -10 -8 -18 -11 -18 -7
0 4 -8 1 -17 -7 -10 -8 -37 -24 -60 -36 -23 -11 -51 -29 -63 -39 -12 -10 -31
-26 -42 -35 -12 -10 -27 -18 -34 -18 -7 0 -14 -4 -16 -8 -11 -27 -489 -224
-505 -209 -2 3 178 82 225 98 17 6 32 16 32 22 0 6 3 7 7 4 7 -7 178 80 194
99 8 10 -97 -34 -266 -111 -16 -7 -68 -27 -115 -45 -47 -17 -98 -37 -115 -43
-16 -7 -32 -12 -35 -12 -3 -1 -32 -11 -65 -24 -33 -12 -67 -24 -75 -26 -8 -2
-26 -8 -40 -13 -14 -5 -28 -10 -32 -11 -5 0 -9 -1 -10 -2 -2 0 -10 -2 -18 -4
-8 -2 -35 -10 -60 -18 -25 -8 -58 -18 -75 -23 -16 -4 -32 -8 -35 -9 -3 -1 -23
-5 -45 -10 -50 -11 -47 -10 -65 -18 -8 -4 -26 -8 -40 -11 -14 -3 -79 -16 -145
-29 -66 -14 -142 -28 -170 -32 -27 -4 -61 -9 -75 -11 -14 -2 -47 -7 -75 -10
-27 -3 -61 -7 -75 -9 -151 -26 -755 -23 -782 3 -4 4 86 7 200 8 114 1 272 4
352 8 144 7 181 10 294 22 32 3 75 8 95 10 20 2 50 6 66 8 17 3 44 7 60 9 17
3 64 16 105 30 41 14 86 28 100 31 14 3 39 8 55 11 17 3 39 9 50 12 11 4 25 8
30 9 73 16 83 18 155 39 30 9 60 17 65 18 6 2 16 6 23 10 6 5 12 5 12 1 0 -3
7 -1 15 6 8 7 15 9 15 6 0 -4 8 -2 18 3 11 6 30 12 43 15 13 3 92 30 174 61
83 31 165 62 183 68 17 7 32 15 32 19 0 5 6 8 14 8 8 0 50 16 93 36 43 20 94
43 113 52 19 9 38 21 42 26 4 6 8 8 8 4 0 -9 176 82 210 109 8 6 18 12 22 13
12 1 64 31 146 84 87 55 212 137 227 149 45 34 86 64 105 77 13 8 33 24 46 35
12 11 51 43 85 70 35 28 90 77 123 109 57 55 47 48 -49 -33 -70 -59 -122 -98
-137 -104 -10 -4 -18 -11 -18 -17 0 -5 -8 -10 -17 -10 -9 0 -13 -3 -10 -6 4
-4 -15 -20 -41 -37 -26 -16 -49 -33 -52 -36 -10 -14 -328 -221 -339 -221 -6 0
-11 -4 -11 -9 0 -8 -37 -24 -52 -22 -5 1 -8 -3 -8 -8 0 -10 -110 -66 -122 -63
-5 1 -8 -2 -8 -8 0 -5 -6 -10 -13 -10 -7 0 -29 -9 -50 -20 -20 -11 -40 -20
-43 -20 -10 0 38 35 71 52 64 33 130 70 135 77 3 3 19 13 35 21 17 8 32 18 35
21 3 3 28 19 55 34 28 16 52 32 55 35 11 11 86 60 94 60 5 0 22 11 40 25 17
14 36 29 42 34 5 4 30 21 55 37 24 16 49 33 56 39 7 5 18 15 25 20 73 57 135
110 193 169 72 71 72 82 0 15 -22 -21 -53 -48 -70 -61 -16 -12 -35 -27 -42
-33 -22 -19 -119 -92 -153 -115 -12 -8 -40 -27 -61 -43 -21 -15 -43 -27 -49
-27 -5 0 -10 -4 -10 -8 0 -4 -30 -25 -67 -46 -38 -22 -70 -42 -73 -45 -3 -3
-14 -11 -25 -17 -43 -23 -112 -62 -145 -82 -39 -23 -396 -202 -403 -202 -3 0
-31 -12 -63 -27 -33 -15 -61 -28 -64 -29 -7 -1 -60 -22 -85 -33 -40 -18 -59
-21 -65 -12 -3 7 -20 5 -45 -4 -22 -8 -47 -14 -56 -15 -9 0 -24 -9 -34 -20 -9
-10 -34 -24 -54 -30 -85 -25 -107 -31 -126 -35 -11 -2 -21 -4 -22 -5 -2 -2 -6
-3 -10 -4 -12 -3 -167 -40 -175 -42 -5 -1 -9 -2 -10 -4 -2 -1 -12 -3 -23 -5
-11 -3 -33 -7 -50 -11 -16 -3 -40 -7 -52 -7 -13 -1 -23 -5 -23 -8 0 -3 -6 -6
-12 -7 -45 -4 -93 -11 -95 -13 -4 -2 -12 -4 -63 -13 -25 -5 -54 -10 -65 -12
-61 -11 -104 -17 -132 -18 -18 0 -33 -3 -33 -6 0 -3 -12 -6 -27 -6 -52 -1
-143 -13 -154 -20 -8 -5 -9 -3 -4 6 6 9 4 11 -5 5 -40 -25 -517 -16 -560 10
-10 6 -115 18 -167 19 -18 0 -33 3 -33 7 0 6 -65 2 -87 -6 -7 -2 -13 -1 -13 3
0 4 -24 7 -52 8 -51 1 -143 10 -143 14 0 2 -13 4 -30 5 -16 2 -30 4 -30 5 0 1
-9 3 -20 5 -37 7 -70 13 -90 18 -143 36 -216 56 -245 67 -14 6 -34 12 -45 14
-24 5 -248 83 -290 101 -16 7 -61 25 -100 40 -72 28 -92 36 -234 100 -46 20
-89 38 -96 39 -7 1 -20 8 -29 15 -9 7 -16 10 -16 7 0 -4 -10 0 -22 8 -12 9
-30 16 -40 16 -10 0 -18 5 -18 12 0 6 -3 9 -6 5 -11 -11 -289 151 -369 215
-11 9 -74 57 -118 91 -16 12 -34 27 -40 32 -7 6 -39 31 -72 55 -106 78 -324
254 -385 310 -21 19 -72 66 -113 103 -114 103 -283 280 -392 411 -22 27 -46
54 -53 62 -6 7 -12 15 -12 19 0 3 -10 17 -22 30 -32 34 -42 46 -64 80 -10 17
-21 32 -24 35 -3 3 -23 32 -45 65 -22 33 -43 62 -47 63 -5 2 -8 8 -8 14 0 5
-8 22 -19 36 -51 72 -261 452 -266 482 0 3 -8 19 -18 36 -9 17 -13 34 -10 38
4 3 2 6 -4 6 -5 0 -16 18 -23 40 -7 22 -17 40 -22 40 -4 0 -7 3 -6 8 2 7 -52
154 -72 197 -25 52 -129 383 -146 464 -3 13 -9 32 -15 43 -5 10 -8 18 -5 18 2
0 -1 19 -6 43 -5 23 -11 50 -13 60 -2 10 -6 26 -9 35 -3 9 -8 31 -11 47 -2 17
-7 41 -10 55 -7 29 -13 67 -20 112 -2 18 -7 51 -11 73 -8 47 -14 92 -28 220
-15 133 -19 229 -19 450 -1 266 12 467 39 644 3 18 7 45 9 60 2 14 4 26 5 26
1 0 3 14 5 30 2 17 7 46 11 65 4 19 8 42 10 50 9 53 15 83 29 145 9 39 19 77
22 85 3 8 7 20 8 25 1 6 3 12 4 15 2 3 4 16 6 30 8 70 154 489 224 642 11 26
21 49 21 52 0 13 143 296 150 296 4 0 7 6 7 13 0 18 105 196 202 342 100 151
186 268 282 381 38 45 69 85 69 89 0 4 21 33 48 65 33 41 52 57 64 54 11 -3
31 8 53 29 37 36 43 52 23 60 -14 5 212 234 322 327 36 30 67 58 70 61 3 3 55
42 115 87 61 45 115 85 120 90 30 23 258 169 315 202 14 7 63 36 109 63 46 26
110 60 142 74 33 15 59 30 59 35 0 4 6 8 14 8 8 0 54 18 103 41 99 46 123 56
208 90 33 13 62 26 65 29 3 3 10 6 15 7 6 1 84 27 175 58 91 30 166 56 168 55
1 0 3 0 5 1 38 12 317 80 342 84 17 2 46 8 65 13 19 4 42 7 50 7 8 -1 21 3 28
8 7 6 15 7 18 4 3 -2 27 1 55 8 29 8 49 9 49 4 0 -6 6 -7 13 -2 14 9 27 11 92
17 28 2 50 5 50 7 0 2 58 6 188 12 60 3 111 8 114 10 3 3 11 3 18 1 7 -3 32 6
54 20 23 15 41 24 41 21 0 -3 10 0 23 6 18 11 71 16 80 9 3 -3 66 -8 152 -10
39 -2 77 -7 87 -11 11 -6 18 -4 21 5 4 10 15 12 39 7 18 -4 48 -7 65 -6 37 1
32 -11 -7 -18 -14 -2 0 -5 30 -7 82 -3 215 -16 215 -20 0 -1 11 -3 25 -5 14
-2 41 -6 60 -9 19 -3 58 -8 85 -12 28 -3 54 -8 59 -11 5 -4 29 -8 53 -9 25 -2
56 -6 69 -8 14 -3 22 -1 19 5 -4 5 -10 7 -15 4 -5 -3 -11 -1 -14 4 -3 4 4 8
17 7 13 -1 21 4 20 12 -4 15 3 15 69 0 29 -6 56 -11 61 -10 4 1 7 -3 7 -10 0
-6 3 -9 6 -6 5 6 234 -68 244 -79 3 -3 -11 -3 -30 1 -39 6 -38 6 73 -36 43
-17 76 -32 74 -34 -2 -3 -51 11 -108 31 -57 19 -111 37 -119 40 -8 2 -37 11
-65 20 -27 8 -45 11 -40 7 6 -5 41 -19 80 -31 38 -12 75 -27 82 -33 7 -6 13
-8 13 -5 0 4 30 -5 68 -19 37 -14 74 -27 84 -29 9 -2 29 -10 45 -18 15 -8 53
-22 83 -32 30 -10 60 -21 65 -25 6 -3 33 -15 60 -25 28 -10 54 -22 59 -26 6
-5 18 -9 28 -9 10 0 18 -5 18 -12 0 -6 3 -8 7 -5 3 4 12 2 20 -4 7 -6 13 -9
13 -5 0 4 13 0 30 -9 16 -8 31 -14 33 -13 2 2 12 -4 23 -12 18 -14 18 -14 5 3
-7 9 -19 17 -26 17 -7 0 -18 7 -25 15 -11 13 -9 14 15 1 16 -8 32 -13 37 -10
4 3 8 0 8 -6 0 -6 5 -8 10 -5 6 4 17 2 25 -5 9 -7 15 -8 20 0 4 7 11 5 21 -5
18 -18 38 -20 28 -3 -4 6 4 3 18 -8 14 -10 24 -22 22 -25 -2 -4 3 -10 12 -13
8 -3 13 -2 9 3 -9 15 20 7 51 -14 16 -11 31 -20 34 -20 5 -1 38 -19 75 -42 11
-7 27 -15 35 -19 8 -4 41 -25 73 -46 32 -21 60 -38 62 -38 7 0 160 -105 163
-112 2 -4 8 -8 14 -8 5 0 15 -6 22 -12 8 -7 24 -20 36 -28 32 -21 244 -183
250 -190 3 -4 43 -40 90 -80 120 -104 450 -437 450 -454 0 -2 15 -20 33 -40
40 -43 52 -57 101 -121 22 -27 42 -52 45 -55 3 -3 11 -12 16 -21 6 -9 39 -58
75 -110 67 -98 150 -227 150 -236 0 -2 7 -11 15 -19 21 -22 19 -7 -5 26 -11
15 -17 30 -13 34 3 3 2 6 -4 6 -5 0 -18 18 -28 40 -10 22 -22 40 -27 40 -4 0
-8 5 -8 10 0 8 -90 151 -122 195 -37 48 -125 162 -133 171 -5 6 -26 31 -45 54
-64 79 -122 144 -214 241 -137 144 -150 159 -142 159 10 0 183 -174 251 -254
28 -32 57 -65 66 -74 8 -10 33 -39 55 -67 21 -27 42 -52 45 -55 4 -3 23 -27
44 -55 20 -27 43 -54 49 -60 7 -5 51 -66 99 -134 48 -68 87 -120 87 -115 0 11
45 -60 95 -151 21 -38 31 -64 22 -56 -14 11 -17 11 -17 0 -1 -10 -4 -9 -14 4
-27 36 -24 15 8 -52 59 -123 109 -201 122 -188 5 5 -14 45 -26 57 -29 28 -58
93 -57 124 1 20 3 36 4 36 6 0 175 -359 177 -377 1 -7 8 -19 14 -25 7 -7 12
-19 12 -28 0 -9 3 -20 8 -24 4 -4 7 -11 7 -14 1 -4 19 -54 42 -112 58 -150
180 -519 198 -600 2 -8 4 -17 5 -20 1 -3 2 -8 1 -12 0 -4 6 -5 14 -2 9 4 16
-2 19 -18 3 -12 14 -61 25 -108 10 -47 22 -104 25 -128 3 -24 8 -46 10 -50 2
-4 7 -30 10 -57 3 -28 9 -66 13 -85 3 -19 7 -48 8 -65 2 -16 4 -30 5 -30 3 0
9 -55 11 -115 1 -30 6 -63 11 -72 5 -10 4 -19 -2 -23 -6 -4 -7 -12 -3 -18 8
-12 10 -50 14 -199 1 -49 6 -88 11 -88 4 0 8 10 9 23 5 173 -5 408 -25 552 -3
22 -9 63 -12 90 -3 28 -8 59 -11 70 -2 11 -6 34 -9 50 -2 17 -9 50 -14 75 -5
25 -12 59 -15 75 -2 17 -11 55 -19 85 -8 30 -12 58 -10 62 3 5 0 8 -6 8 -6 0
-9 3 -7 8 3 4 -6 48 -20 97 -13 50 -28 104 -33 120 -39 145 -146 443 -206 580
-10 22 -18 42 -19 45 -1 5 -12 29 -58 130 -14 30 -41 73 -61 95 -20 22 -41 58
-47 80 -11 39 -56 140 -72 160 -4 6 -32 48 -62 95 -30 47 -58 90 -62 95 -4 6
-28 39 -53 75 -24 36 -48 67 -52 68 -4 2 -8 10 -8 18 0 8 -4 14 -10 14 -5 0
-10 6 -10 14 0 8 -3 16 -8 18 -4 2 -30 32 -57 68 -28 36 -52 67 -55 70 -3 3
-15 17 -25 31 -60 77 -221 254 -346 378 -98 98 -141 137 -244 226 -31 28 -63
55 -69 60 -6 6 -42 35 -81 65 -38 30 -72 57 -75 60 -5 6 -108 81 -200 145 -30
21 -60 43 -67 49 -26 23 -68 52 -93 63 -8 4 -24 15 -34 25 -11 10 -23 18 -27
18 -11 0 -133 73 -141 85 -4 5 -8 6 -8 2 0 -5 -16 1 -35 13 -77 47 -440 216
-480 223 -5 1 -12 4 -15 7 -3 3 -30 14 -60 24 -30 11 -66 24 -80 29 -14 6 -27
11 -30 12 -12 3 -86 27 -100 32 -21 9 -21 9 -55 17 -38 10 -126 36 -145 43 -8
4 -21 5 -27 4 -7 -1 -13 2 -13 6 0 5 -8 9 -17 10 -25 1 -63 9 -183 38 -58 13
-123 27 -145 30 -22 3 -47 8 -55 10 -21 6 -203 33 -275 40 -33 4 -71 8 -85 11
-25 4 -149 14 -250 20 -74 4 -439 4 -520 -1 -106 -6 -233 -15 -270 -20 -19 -3
-55 -7 -80 -10 -112 -14 -245 -33 -280 -40 -14 -3 -52 -10 -85 -15 -89 -16
-165 -39 -165 -51 0 -6 -4 -7 -10 -4 -5 3 -10 2 -10 -2 0 -5 -20 -17 -45 -28
-25 -11 -45 -23 -45 -27 0 -9 33 -3 58 11 11 6 22 8 25 5 3 -3 21 -1 39 5 18
5 44 12 58 15 14 2 47 9 74 15 27 7 62 13 78 15 16 2 35 9 41 16 9 10 8 12 -5
7 -10 -3 -20 -3 -22 2 -3 4 0 8 7 9 7 0 44 4 82 7 66 7 69 6 50 -9 -22 -19
-27 -19 65 -1 44 9 126 15 110 9 -55 -21 -53 -21 -133 -28 -63 -6 -106 -13
-143 -21 -12 -3 -39 -7 -60 -11 -21 -3 -48 -8 -59 -9 -11 -2 -47 -10 -80 -19
-33 -8 -62 -13 -64 -10 -2 2 -10 -1 -18 -7 -7 -6 -13 -9 -13 -6 0 4 -18 0 -40
-8 -22 -8 -40 -12 -40 -8 0 3 -6 1 -12 -4 -7 -6 -21 -9 -30 -8 -10 2 -18 -1
-18 -6 0 -5 -8 -9 -17 -9 -10 0 -38 -7 -63 -16 -25 -9 -52 -17 -60 -19 -25 -5
-324 -117 -335 -125 -5 -4 -21 -11 -35 -15 -36 -11 -335 -156 -397 -193 -28
-17 -54 -28 -57 -25 -3 4 -6 2 -6 -4 0 -6 -15 -16 -32 -24 -18 -7 -35 -16 -38
-19 -3 -3 -36 -24 -75 -47 -88 -51 -202 -126 -235 -152 -14 -12 -31 -21 -37
-21 -7 0 -13 -4 -13 -8 0 -5 -24 -24 -52 -42 -29 -19 -55 -37 -58 -41 -3 -4
-34 -28 -70 -54 -36 -27 -83 -64 -105 -83 -22 -19 -51 -44 -65 -56 -14 -12
-52 -44 -85 -71 -32 -28 -66 -57 -76 -65 -9 -8 -27 -24 -40 -34 -116 -93 -243
-214 -319 -305 -73 -86 -79 -94 -143 -181 -27 -36 -55 -73 -63 -83 -8 -9 -14
-20 -14 -23 0 -3 -6 -11 -13 -19 -23 -24 -152 -220 -149 -227 1 -5 -2 -8 -6
-8 -5 0 -34 -40 -66 -90 -32 -49 -64 -90 -70 -90 -7 0 -7 3 1 8 7 4 19 23 28
42 8 19 25 51 37 72 13 20 36 58 52 85 16 26 32 50 35 53 3 3 19 25 36 50 35
53 184 253 217 292 13 15 41 48 63 75 94 114 344 363 520 518 37 33 73 65 79
70 62 59 308 255 320 255 14 0 165 93 176 109 3 4 26 20 52 36 27 17 48 33 48
38 0 4 7 7 15 7 8 0 15 4 15 9 0 8 84 45 105 46 13 1 78 36 85 45 4 6 195 102
210 106 3 0 32 13 65 28 69 32 106 48 120 52 6 1 53 19 105 39 52 21 100 38
105 40 6 1 24 7 40 14 17 7 42 15 58 18 15 3 30 10 33 14 3 5 14 9 24 9 10 0
21 4 25 9 3 6 -4 8 -16 6 -12 -2 -18 -1 -15 3 4 4 11 7 14 7 14 1 72 30 72 37
0 8 -67 -10 -102 -28 -15 -8 -31 -14 -35 -14 -8 0 -67 -17 -93 -27 -8 -4 -18
-5 -22 -5 -5 1 -8 -3 -8 -9 0 -5 -4 -8 -10 -4 -5 3 -17 1 -27 -5 -10 -6 -40
-19 -68 -29 -51 -19 -79 -49 -34 -37 24 7 24 7 -1 -8 -14 -8 -28 -12 -32 -10
-5 3 -8 0 -8 -7 0 -7 -4 -8 -12 -2 -25 18 -32 16 -282 -101 -65 -31 -122 -56
-127 -56 -5 0 -9 -4 -9 -8 0 -4 -12 -13 -27 -19 -16 -7 -61 -30 -100 -52 -40
-21 -73 -37 -73 -35 0 7 73 51 235 142 113 64 495 245 533 253 4 1 12 3 17 5
149 55 440 148 492 159 10 1 45 10 78 19 90 23 209 48 285 60 19 3 70 12 113
19 55 10 77 11 77 3 0 -7 3 -6 8 2 5 6 33 14 63 16 30 3 79 7 109 10 30 3 90
8 133 10 43 3 83 8 89 12 6 4 9 3 5 -2 -3 -5 14 -8 36 -7 134 8 207 8 207 0 0
-6 5 -6 13 0 6 5 37 8 67 6 30 -1 109 -5 175 -8 66 -3 136 -7 155 -10 19 -3
55 -7 80 -10 198 -19 320 -38 544 -86 167 -36 171 -37 171 -39 0 -1 7 -3 15
-5 30 -6 105 -26 130 -35 14 -4 81 -25 150 -46 69 -20 130 -40 135 -44 12 -9
67 -24 78 -22 4 1 7 -2 7 -8 0 -6 3 -9 8 -8 15 5 188 -66 342 -140 41 -20 77
-36 80 -37 10 -2 296 -145 345 -172 28 -16 52 -31 53 -35 2 -5 8 -8 13 -8 14
0 229 -143 229 -152 0 -4 5 -8 11 -8 6 0 41 -24 78 -52 36 -29 71 -56 76 -60
70 -53 193 -157 263 -225 24 -24 46 -43 49 -43 2 0 59 -55 126 -121 66 -67
135 -127 151 -135 17 -7 47 -29 66 -49 33 -35 33 -37 10 -30 l-25 8 20 -24
c38 -45 45 -50 54 -45 5 3 24 -8 42 -26 19 -17 26 -29 17 -25 -10 3 -18 2 -18
-3 0 -6 8 -10 17 -10 9 0 14 -2 11 -5 -3 -3 30 -41 73 -85 42 -44 76 -80 73
-80 -5 0 23 -34 54 -66 12 -13 22 -25 22 -28 0 -6 24 -37 48 -61 6 -8 12 -17
12 -20 0 -4 14 -24 30 -45 17 -21 30 -42 30 -48 0 -6 3 -12 8 -14 7 -3 66 -89
67 -98 1 -4 14 -27 62 -105 32 -53 103 -186 103 -194 0 -5 3 -11 8 -13 9 -4
68 -121 65 -129 -1 -4 4 -13 12 -19 8 -7 15 -16 15 -21 0 -5 17 -46 39 -92 21
-45 46 -100 55 -121 9 -22 18 -37 21 -34 3 2 -7 33 -21 67 -14 35 -23 65 -21
68 3 2 12 -13 20 -34 9 -21 28 -65 42 -98 15 -33 28 -64 29 -70 2 -5 6 -17 9
-25 44 -107 160 -488 181 -599 1 -8 8 -17 15 -19 10 -3 12 6 6 39 -5 34 -4 40
5 29 12 -16 13 -20 -10 70 -7 24 -20 62 -30 85 -10 22 -18 47 -18 55 0 21 -8
60 -20 91 -6 15 -8 30 -5 33 4 3 1 6 -5 6 -7 0 -12 8 -12 18 0 10 -3 22 -7 26
-5 4 -9 12 -9 17 -1 5 -3 11 -4 14 -1 3 -3 8 -4 13 -1 4 -11 24 -24 44 -13 21
-25 50 -28 65 -3 15 -15 60 -26 98 -12 39 -22 72 -23 75 -1 3 -9 22 -18 44 -9
21 -17 41 -17 43 0 11 -145 298 -201 398 -34 61 -68 124 -75 140 -8 17 -19 37
-24 45 -5 8 -31 51 -57 95 -26 44 -51 82 -55 83 -4 2 -8 8 -8 13 0 9 -116 187
-130 199 -3 3 -30 39 -60 80 -30 41 -57 77 -60 80 -3 3 -25 30 -50 60 -25 30
-48 57 -52 58 -5 2 -8 7 -8 11 0 20 -362 391 -480 491 -35 30 -71 62 -80 70
-9 8 -34 28 -55 44 -22 17 -42 33 -45 36 -3 3 -25 21 -50 40 -25 19 -49 38
-55 43 -5 4 -39 29 -75 55 -36 26 -66 50 -68 54 -2 5 -8 8 -13 8 -6 0 -15 5
-22 10 -84 71 -604 370 -643 370 -7 0 -14 4 -16 8 -1 4 -27 18 -57 31 -29 12
-65 34 -78 47 -27 27 -114 74 -138 74 -8 0 -15 4 -15 8 0 5 -6 9 -12 9 -7 1
-44 13 -83 28 -147 57 -450 150 -550 170 -16 3 -34 7 -40 9 -43 13 -63 17 -85
20 -14 2 -32 6 -40 9 -8 3 -33 9 -55 12 -40 6 -61 10 -100 18 -11 3 -45 8 -75
12 -30 4 -64 9 -75 12 -11 2 -40 6 -65 8 -25 3 -61 7 -80 9 -127 19 -184 23
-415 31 -88 3 -186 7 -218 8 -32 1 -60 1 -61 0z m-196 -282 c0 -4 -11 -8 -25
-9 -14 -1 -25 2 -25 6 0 4 11 8 25 8 14 1 25 -1 25 -5z m298 2 c-54 -2 -142
-2 -195 0 -54 1 -10 3 97 3 107 0 151 -2 98 -3z m-393 -18 c-22 -9 -67 -17
-100 -20 -56 -4 -57 -4 -22 6 20 6 37 14 37 18 0 3 28 7 63 9 l62 2 -40 -15z
m1724 -20 c37 -6 114 -36 108 -41 -6 -6 -141 37 -152 49 -7 7 -6 8 1 4 6 -3
25 -9 43 -12z m-1429 -86 c0 -10 -136 -6 -147 5 -4 4 18 6 49 5 32 -1 60 0 64
3 8 8 34 -2 34 -13z m43 4 c-7 -2 -19 -2 -25 0 -7 3 -2 5 12 5 14 0 19 -2 13
-5z m330 -9 c12 -2 49 -6 81 -9 33 -4 62 -7 63 -9 2 -1 -70 -1 -158 1 -131 3
-164 7 -177 20 -15 14 -9 15 77 9 51 -4 102 -9 114 -12z m222 -24 c3 -5 1 -10
-4 -10 -6 0 -11 5 -11 10 0 6 2 10 4 10 3 0 8 -4 11 -10z m239 -4 c11 -2 21
-7 23 -12 2 -6 -20 -10 -51 -10 -30 1 -52 4 -50 8 3 4 -4 12 -13 17 -14 8 -7
9 27 5 25 -3 54 -7 64 -8z m-159 -14 c-3 -3 -11 0 -18 7 -9 10 -8 11 6 5 10
-3 15 -9 12 -12z m210 -2 c3 -5 1 -10 -4 -10 -6 0 -11 5 -11 10 0 6 2 10 4 10
3 0 8 -4 11 -10z m482 -41 c2 -16 -3 -18 -25 -13 -54 13 -59 32 -9 32 25 0 33
-4 34 -19z m173 -123 c0 -2 -7 -7 -16 -10 -8 -3 -12 -2 -9 4 6 10 25 14 25 6z
m120 -43 c46 -15 82 -34 92 -48 l17 -23 -42 21 c-23 11 -50 22 -59 24 -9 1
-37 14 -63 28 -25 14 -51 23 -57 19 -7 -5 -8 -3 -4 5 5 7 15 9 25 6 9 -4 50
-18 91 -32z m155 -61 c-3 -3 -11 0 -18 7 -9 10 -8 11 6 5 10 -3 15 -9 12 -12z
m30 -13 c-4 -6 0 -9 11 -7 12 2 18 -2 16 -10 -2 -9 4 -11 18 -7 13 4 22 1 26
-9 3 -9 10 -13 15 -10 5 3 9 0 9 -6 0 -6 5 -8 13 -4 8 5 8 2 -2 -9 -14 -18
-26 -23 -16 -8 3 5 -4 12 -15 16 -11 4 -17 11 -14 17 5 8 1 9 -10 5 -9 -4 -28
0 -42 9 -25 17 -32 34 -13 34 5 0 7 -5 4 -11z m193 -94 c51 -19 67 -32 37 -32
-8 0 -15 4 -15 9 0 4 -3 7 -7 7 -28 -5 -53 2 -47 13 5 8 2 9 -9 5 -10 -3 -17
-2 -17 3 0 5 -7 6 -17 3 -11 -4 -14 -3 -9 6 5 7 13 11 20 8 6 -2 35 -12 64
-22z m-4453 -65 c-3 -5 -12 -10 -18 -10 -7 0 -6 4 3 10 19 12 23 12 15 0z
m5096 -192 c23 -18 49 -44 58 -58 l15 -25 -24 20 c-13 11 -29 23 -35 27 -5 4
-26 21 -45 37 -47 41 -22 39 31 -1z m386 -302 c24 -22 43 -43 43 -48 0 -4 -12
5 -27 20 -16 15 -45 40 -65 55 -21 16 -38 33 -38 39 0 11 14 1 87 -66z m-6922
-430 c-10 -14 -22 -26 -27 -26 -10 0 -3 16 20 43 22 25 27 13 7 -17z m8415
-1166 c6 -11 8 -20 6 -20 -3 0 -10 9 -16 20 -6 11 -8 20 -6 20 3 0 10 -9 16
-20z m-2051 -6274 c-14 -13 -109 -64 -109 -58 1 8 103 70 109 65 2 -2 2 -5 0
-7z m-119 -60 c0 -6 -66 -46 -76 -46 -5 0 9 11 31 25 43 26 45 27 45 21z
m-105 -62 c-23 -18 -353 -184 -365 -184 -5 0 -43 -16 -85 -36 -43 -20 -82 -37
-89 -38 -6 -1 -18 -6 -26 -11 -8 -5 -22 -10 -30 -12 -8 -1 -23 -6 -35 -12 -37
-18 -159 -60 -265 -91 -165 -49 -203 -59 -235 -65 -16 -2 -41 -7 -55 -10 -53
-12 -177 -36 -210 -41 -19 -3 -46 -7 -59 -9 -22 -4 -99 -12 -183 -20 -16 -1
-28 1 -28 6 0 4 8 7 18 7 17 -1 78 7 148 18 39 6 358 72 384 79 8 2 49 13 90
24 102 26 233 65 305 91 33 12 66 22 73 23 6 0 12 3 12 7 0 4 6 7 13 7 10 0
67 21 172 64 17 7 32 13 35 14 50 17 164 69 295 136 141 72 150 76 120 53z
m-2558 -440 c-3 -3 -12 -4 -19 -1 -8 3 -5 6 6 6 11 1 17 -2 13 -5z m871 -91
c-10 -2 -28 -2 -40 0 -13 2 -5 4 17 4 22 1 32 -1 23 -4z"/>
<path d="M4314 10244 c-18 -14 -18 -15 4 -4 12 6 22 13 22 15 0 8 -5 6 -26
-11z"/>
<path d="M7770 9792 c0 -4 14 -13 30 -19 17 -6 30 -10 30 -7 0 2 -13 10 -30
19 -16 9 -30 12 -30 7z"/>
<path d="M7940 9751 c0 -6 10 -16 23 -22 12 -7 25 -17 29 -23 6 -8 8 -8 8 1 0
6 -13 21 -30 33 -16 12 -30 17 -30 11z"/>
<path d="M8010 9710 c0 -5 5 -10 11 -10 5 0 7 5 4 10 -3 6 -8 10 -11 10 -2 0
-4 -4 -4 -10z"/>
<path d="M10290 7511 c0 -6 4 -13 10 -16 6 -3 7 1 4 9 -7 18 -14 21 -14 7z"/>
<path d="M3168 7087 c-9 -18 -83 -223 -114 -317 -8 -25 -19 -54 -24 -65 -4
-11 -19 -51 -32 -90 -13 -38 -27 -73 -31 -76 -5 -3 -8 -8 -6 -10 3 -6 -75
-237 -118 -349 -3 -8 -7 -19 -9 -25 -3 -14 -200 -567 -222 -625 -3 -8 -6 -17
-7 -20 -1 -3 -4 -12 -8 -20 -3 -8 -20 -55 -37 -105 -17 -49 -42 -119 -55 -155
-23 -65 -58 -165 -111 -315 -15 -44 -32 -91 -37 -105 -6 -14 -11 -29 -13 -35
-1 -5 -30 -86 -64 -180 -34 -93 -65 -181 -70 -195 -4 -14 -27 -76 -49 -139
-23 -62 -41 -114 -41 -115 0 -3 298 0 323 2 9 1 16 5 16 10 -1 4 0 10 1 15 1
4 3 10 4 15 1 4 10 32 21 62 11 30 20 57 20 60 1 3 4 12 8 20 3 8 22 62 42
120 20 58 51 148 70 200 18 52 52 151 76 220 23 69 44 127 46 130 8 9 1215 5
1222 -5 4 -5 24 -59 45 -120 21 -60 40 -117 43 -125 4 -8 7 -18 8 -22 2 -5 4
-10 5 -13 1 -3 3 -8 5 -12 1 -5 5 -17 9 -28 29 -75 34 -93 29 -99 -4 -3 -1 -6
5 -6 7 0 11 -3 10 -7 -1 -8 1 -16 22 -73 7 -19 15 -47 17 -62 3 -16 10 -28 16
-28 6 0 8 -3 5 -6 -3 -3 3 -29 14 -57 11 -29 20 -58 21 -64 0 -7 4 -13 9 -13
5 0 7 -4 3 -10 -3 -5 -1 -17 4 -27 5 -10 14 -32 21 -49 l11 -30 175 -1 176 0
-7 36 c-4 20 -10 41 -14 46 -5 6 -11 19 -13 30 -3 11 -25 72 -48 135 -22 63
-43 122 -45 130 -3 8 -16 47 -30 85 -14 39 -33 90 -41 115 -9 25 -53 149 -99
275 -46 127 -85 239 -87 250 -1 11 -6 22 -10 25 -4 3 -9 17 -11 30 -3 14 -15
47 -26 73 -12 27 -21 56 -21 66 0 9 -4 21 -8 27 -5 5 -19 41 -32 79 -13 39
-27 76 -33 83 -5 6 -7 12 -4 12 4 0 -5 30 -19 68 -14 37 -53 144 -85 237 -56
158 -70 199 -113 313 -9 23 -12 42 -8 42 4 0 2 4 -3 8 -6 4 -18 30 -27 57 -20
59 -56 164 -65 185 -3 8 -7 18 -8 23 -2 4 -4 9 -5 12 -1 3 -4 10 -5 15 -1 6
-4 12 -5 15 -1 3 -3 8 -4 13 -1 4 -7 21 -13 37 -7 17 -37 102 -68 190 -31 88
-60 169 -64 180 -5 11 -13 31 -18 45 l-10 25 -197 0 c-184 0 -198 -1 -208 -18z
m206 -368 c2 -8 6 -23 10 -34 9 -23 17 -48 18 -55 1 -3 12 -34 25 -70 24 -67
104 -294 143 -410 12 -36 25 -74 30 -85 13 -29 91 -257 95 -277 2 -9 9 -26 15
-38 11 -21 21 -54 22 -77 1 -7 5 -13 10 -13 4 0 8 -11 8 -24 0 -14 5 -28 10
-31 6 -3 10 -17 10 -30 0 -13 3 -26 8 -29 4 -2 16 -34 27 -70 11 -36 24 -66
28 -66 5 0 6 -4 3 -9 -3 -5 1 -25 9 -44 8 -20 11 -38 7 -40 -4 -2 -227 -3
-497 -2 l-490 0 -1 23 c-1 12 2 22 6 22 4 0 7 6 7 13 1 6 26 84 58 172 31 88
65 187 76 220 11 33 30 89 44 125 30 82 258 737 281 808 16 49 31 57 38 21z"/>
<path d="M5032 7102 c-10 -3 -10 -7 -1 -18 6 -8 9 -14 6 -14 -3 0 1 -16 9 -35
8 -19 14 -37 14 -40 0 -3 2 -10 5 -17 4 -12 64 -208 115 -373 10 -33 32 -105
50 -160 47 -149 49 -155 43 -155 -3 0 -1 -6 4 -12 8 -10 67 -187 78 -233 1 -5
5 -18 8 -27 4 -10 10 -26 14 -35 3 -10 7 -22 8 -28 1 -5 3 -12 4 -15 2 -3 4
-13 6 -22 2 -9 15 -54 30 -100 15 -46 31 -96 35 -113 5 -16 27 -88 50 -160 23
-71 43 -137 45 -145 3 -8 22 -71 44 -140 22 -69 84 -269 139 -445 56 -176 105
-333 110 -350 17 -51 55 -180 55 -185 1 -3 11 -34 23 -70 l22 -65 180 -1 c100
0 185 2 191 5 7 5 51 137 66 201 2 8 4 15 5 15 1 0 3 7 5 15 1 8 13 49 26 90
12 41 23 80 25 86 1 6 13 48 27 95 65 212 89 293 92 308 2 9 9 32 15 51 10 31
16 55 23 94 1 6 5 13 9 16 4 3 9 19 12 35 4 17 17 65 30 108 14 42 22 77 20
77 -2 0 2 14 11 30 9 17 13 30 9 30 -4 0 -1 7 6 15 7 8 10 15 6 15 -3 0 -1 12
5 28 6 15 12 34 14 42 7 35 28 106 33 115 4 6 7 15 9 20 10 47 13 60 23 88 11
35 115 389 125 427 2 8 13 47 25 85 13 39 23 75 25 80 1 6 8 30 15 55 8 25 14
47 15 50 1 3 7 25 14 50 6 25 18 61 26 81 8 20 11 40 7 44 -4 4 0 6 8 3 8 -3
16 -13 18 -24 2 -10 6 -26 9 -34 3 -8 8 -26 10 -40 2 -13 8 -29 12 -35 7 -9
20 -47 27 -83 1 -8 6 -21 10 -30 4 -9 9 -28 11 -42 2 -13 8 -29 12 -35 5 -5
12 -23 16 -40 5 -16 10 -34 11 -40 2 -5 5 -17 7 -25 2 -8 7 -22 10 -30 3 -8
14 -44 25 -80 49 -161 124 -398 137 -430 7 -19 13 -37 13 -40 1 -13 15 -66 21
-75 3 -5 6 -12 6 -15 1 -3 9 -32 20 -65 10 -33 19 -62 20 -65 4 -19 47 -159
54 -175 5 -11 18 -51 30 -90 17 -58 50 -164 97 -315 4 -14 9 -27 9 -30 1 -3 4
-12 8 -20 3 -8 24 -76 47 -150 23 -74 45 -146 50 -160 5 -14 27 -84 50 -156
l40 -130 190 0 c182 0 189 1 194 20 3 12 5 23 5 26 0 3 8 28 19 55 11 28 20
52 19 55 0 3 5 23 12 45 16 50 18 58 20 67 1 4 8 26 16 48 8 22 12 40 10 40
-2 0 3 17 11 37 9 20 17 44 19 52 5 21 44 152 52 171 8 18 7 17 17 60 5 19 11
40 14 45 4 6 7 15 9 20 4 22 158 521 183 595 16 48 58 186 66 215 2 6 12 42
24 80 12 39 24 82 27 98 3 15 9 27 12 27 4 0 8 6 9 13 1 13 3 22 21 87 14 48
57 188 71 230 5 14 23 72 40 130 17 58 34 112 37 120 7 17 6 15 26 85 8 28 29
95 47 150 28 89 76 243 84 270 1 6 10 34 19 64 9 30 17 55 17 56 0 0 -84 0
-186 0 -166 0 -186 -2 -195 -17 -6 -10 -7 -18 -3 -18 3 0 1 -7 -6 -15 -7 -9
-10 -18 -7 -21 3 -3 -1 -20 -8 -39 -8 -18 -11 -35 -8 -39 4 -3 2 -6 -4 -6 -5
0 -10 -6 -11 -12 -2 -28 -14 -72 -24 -92 -6 -12 -11 -22 -10 -23 1 -2 2 -4 1
-5 0 -2 -2 -10 -4 -18 -2 -8 -13 -49 -25 -90 -12 -41 -23 -82 -25 -90 -2 -8
-8 -26 -13 -40 -5 -14 -10 -28 -10 -33 0 -4 -10 -38 -21 -75 -33 -108 -222
-755 -226 -773 -5 -22 -41 -148 -68 -234 -11 -38 -22 -72 -22 -75 -7 -35 -19
-77 -23 -85 -4 -5 -7 -17 -9 -25 -1 -8 -22 -83 -46 -165 -25 -83 -66 -225 -93
-317 -44 -152 -64 -198 -64 -151 0 10 -6 35 -14 58 -20 60 -51 159 -81 260
-14 50 -30 99 -36 110 -5 11 -11 29 -14 40 -2 11 -13 52 -25 90 -37 120 -40
130 -40 137 0 5 -9 32 -19 60 -21 59 -64 195 -116 368 -1 3 -4 12 -7 20 -4 8
-8 24 -11 35 -3 11 -21 72 -42 135 -20 63 -38 122 -40 130 -2 8 -11 37 -20 64
-9 26 -18 56 -20 65 -2 9 -8 28 -14 44 -6 15 -8 27 -5 27 4 0 2 6 -4 13 -6 7
-13 24 -15 37 -3 14 -13 48 -22 75 -10 28 -18 55 -20 60 -1 6 -10 37 -20 70
-11 33 -19 62 -20 65 -2 8 -76 243 -85 270 -5 14 -23 70 -40 125 l-31 101
-177 -1 -177 0 -18 -55 c-17 -53 -80 -261 -116 -385 -10 -33 -21 -67 -24 -75
-10 -25 -40 -134 -40 -147 0 -7 -4 -13 -9 -13 -4 0 -7 -3 -7 -7 1 -5 0 -12 -1
-18 -1 -5 -3 -14 -4 -20 -1 -5 -10 -37 -21 -70 -10 -33 -20 -62 -20 -65 -1 -3
-7 -25 -14 -50 -7 -25 -15 -52 -17 -60 -2 -8 -29 -96 -59 -195 -31 -99 -67
-218 -81 -265 -14 -47 -36 -119 -49 -160 -45 -147 -67 -221 -69 -233 -2 -7 -6
-19 -9 -27 -5 -13 -29 -97 -31 -110 -1 -3 -6 -18 -13 -35 -14 -37 -27 -87 -25
-97 1 -5 -2 -8 -6 -8 -4 0 -9 -9 -10 -20 -4 -44 -6 -50 -14 -50 -5 0 -6 -5 -3
-10 4 -6 1 -17 -5 -25 -6 -8 -9 -19 -5 -25 3 -5 1 -10 -6 -10 -7 0 -10 -3 -6
-6 3 -3 -1 -25 -10 -47 -8 -23 -16 -51 -19 -62 -9 -46 -37 -125 -42 -120 -3 3
-18 47 -33 98 -29 98 -78 261 -110 367 -23 76 -26 83 -37 130 -5 20 -14 45
-21 58 -6 12 -10 22 -7 22 3 0 -3 24 -13 53 -10 28 -19 57 -21 62 -3 13 -6 22
-20 66 -6 20 -12 45 -14 55 -3 10 -9 31 -15 47 -6 15 -8 27 -5 27 4 0 2 6 -4
13 -8 10 -14 31 -28 92 -1 6 -9 30 -17 55 -8 25 -23 72 -32 105 -9 33 -21 71
-26 85 -13 40 -62 204 -65 217 -1 7 -16 57 -32 110 -17 54 -40 132 -52 173
-12 41 -31 103 -42 138 -11 34 -21 68 -22 75 -2 6 -5 19 -8 27 -3 8 -16 49
-28 90 -11 41 -32 109 -45 150 -13 41 -26 90 -30 107 -4 18 -12 36 -18 40 -13
8 -343 13 -365 5z"/>
<path d="M10565 6800 c8 -78 21 -145 37 -183 19 -50 19 -22 -3 84 -11 57 -23
115 -25 129 -10 51 -16 33 -9 -30z"/>
<path d="M10433 5735 c0 -8 4 -15 9 -15 4 0 8 7 8 15 0 8 -4 15 -8 15 -5 0 -9
-7 -9 -15z"/>
<path d="M10435 5659 c-4 -6 -5 -12 -2 -15 2 -3 7 2 10 11 7 17 1 20 -8 4z"/>
</g>
</svg>
